<svg width="1440" height="670" fill="none" xmlns="http://www.w3.org/2000/svg"><path d="M827.577 309.274c-.151-14.607-.485-29.235-1.428-43.817 0-.011-.004-.022-.004-.036.039-.403.05-.809.027-1.216-.318-6.611-5.492-11.15-12.49-11.574-63.721-3.86-127.625-2.421-191.374.082-63.492 2.493-126.969 6.022-190.536 6.345-35.882.184-71.787-.672-107.571-3.212-6.47-.46-12.661 5.604-12.377 11.471.322 6.632 5.445 10.948 12.377 11.47 1.867.14 3.734.277 5.6.406.047.123.101.245.152.364-.19 1.607-.45 3.215-.594 4.765a1329.958 1329.958 0 00-2.348 28.843 1696.809 1696.809 0 00-2.259 38.512c-1.227 25.692-1.956 51.402-2.542 77.116-.136 6.043-.497 12.139-.012 18.175.439 5.427 1.347 10.999 3.668 15.991-5.22 1.342-9.556 5.755-9.3 11.014.299 6.15 5.423 11.484 12.335 11.43 61.75-.485 123.5-1.392 185.242-2.302 61.424-.906 122.852-2.168 184.221-4.873 34.43-1.518 68.837-3.496 103.194-6.097 6.493-.493 12.808-4.971 12.489-11.575a11.14 11.14 0 00-.322-2.154c1.689-1.219 3.225-2.903 4.219-4.474 1.75-2.777 1.991-5.64 2.356-8.762.749-6.378 1.444-12.762 2.08-19.15a1059.301 1059.301 0 003.144-38.738 1062.604 1062.604 0 002.053-78.004z" fill="#C4C1BB"/><path d="M854.047 332.768c-.229-9.866.567-20.901-10.033-26.541-4.63-2.464-10.045-2.694-15.241-3.003a318.485 318.485 0 00-14.85-.507c-9.365-.112-62.394-.533-65.487-.637-17.062-.579-22.632 1.374-28.877 11.398-2.751 4.417-2.615 24.534-2.821 29.099-.4 8.873-3.175 48.456 1.847 55.725 6.497 9.399 96.258 7.791 114.736 5.662 12.769-1.471 17.237-8.909 18.529-20.311.877-7.806 2.399-42.13 2.197-50.885z" fill="#E3E0DA"/><path d="M834.854 325.19c-2.146-7.845-10.766-12.341-18.866-13.456-6.47-.889-13.037-1.205-19.561-1.586-11.691-.684-23.458-1.011-35.133.072-6.707.622-13.429 1.521-19.973 3.043-3.966.92-7.673 2.244-10.545 5.039-5.174 5.032-5.228 12.646-1.49 18.397 3.124 4.802 7.972 7.435 13.366 8.87a17.77 17.77 0 003.187 1.788c6.862 2.953 14.993 3.061 22.453 3.543 11.892.769 23.78.895 35.586-.799 5.83-.838 11.322-2.543 16.655-4.888 8.329-3.669 16.941-10.449 14.321-20.023z" fill="#356B68"/><path d="M729.674 367.546c3.124 2.244 7.972 3.475 13.367 4.147.982.324 2.049.604 3.186.835 6.862 1.381 14.993 1.431 22.453 1.654 11.892.36 23.78.417 35.587-.374 5.829-.392 11.321-1.191 16.654-2.288 8.329-1.712 16.941-4.884 14.322-9.358-2.147-3.669-10.767-5.77-18.867-6.291-6.47-.418-13.037-.565-19.561-.741-11.69-.32-23.458-.471-35.133.032-6.707.291-13.429.712-19.972 1.421-3.967.431-7.674 1.05-10.546 2.356-5.173 2.359-5.228 5.917-1.49 8.607zm85.926 12.067c-6.47-.417-13.037-.564-19.561-.741-11.691-.32-23.458-.471-35.133.033-6.707.291-13.429.712-19.973 1.42-3.966.432-7.673 1.051-10.545 2.356-5.174 2.353-5.228 5.914-1.49 8.604 3.124 2.244 7.972 3.475 13.367 4.147a27.92 27.92 0 003.186.835c6.862 1.381 14.993 1.431 22.453 1.654 11.892.36 23.78.417 35.586-.374 5.83-.392 11.322-1.19 16.655-2.287 8.329-1.713 16.941-4.885 14.321-9.359-2.146-3.666-10.766-5.766-18.866-6.288z" fill="#27374D"/><path d="M761.368 150.808c-.055-6.413-5.686-11.366-12.49-11.575-37.667-1.165-243.282-1.992-253.85-1.518-2.577.116-5.154.238-7.731.364-3.008.147-6.253.118-9.129.971-7.013 2.082-10.995 8.478-9.598 15.096.089 23.778.206 47.557.314 71.332.113 24.441.214 48.881.322 73.322.109 24.321.222 48.64.326 72.961.105 24.322.214 48.644.326 72.966.055 12.222.113 24.444.167 36.666.016 2.996.024 5.992.043 8.988.027 5.255.085 2.853 3.745 6.906 5.391 5.971 269.321 3.64 273.87 3.158 3.268-.345 6.489-1.021 8.837-3.392 2.22-2.24 3.726-5.075 3.66-8.19-.916-42.978-1.576-85.975-.718-128.96.435-21.545 1.948-203.783 1.906-209.095zm-74.364 233.064c.198-13.869.4-27.742.598-41.612l.201-14.265c.4-3.586.819-7.172 1.273-10.754.276 8.118.524 16.239.738 24.357a1391.03 1391.03 0 00-2.884 47.371c.031-1.702.051-3.403.074-5.097zm-125.705 19.811c3.816-1.37 7.375-3.079 10.002-6.089 2.678-3.068 4.522-6.208 5.772-10.017.97-2.964 1.467-6.068 1.789-9.201 1.475 1.126 3.19 1.967 4.851 2.392a13.54 13.54 0 006.657 0c2.123-.55 3.962-1.547 5.527-2.986 2.041-1.478 3.83-3.568 5.03-5.679 1.804-3.176 2.445-6.017 2.891-9.542.349-2.752-1.649-6.334-3.668-8.205-.865-.802-1.956-1.525-3.147-2.097-4.39-37.691-1.809-75.702-2.24-113.541-.031-2.712-.077-5.42-.147-8.132 2.728 1.327 5.926 1.798 8.923.899 5.573-1.673 8.701-5.867 9.186-11.183.063-.669.121-1.338.183-2.007.404.587.823 1.169 1.261 1.734 3.004 3.881 7.13 6.201 12.471 5.536 4.614-.576 9.415-3.838 10.405-8.309.047-.212.089-.425.136-.633a24.04 24.04 0 002.173 1.388c-13.153 27.876-24.284 56.568-33.029 85.9a607.409 607.409 0 00-7.65 28.224c-1.447 5.877 1.941 12.783 8.706 14.211 6.342 1.338 13.782-1.766 15.335-8.068a593.38 593.38 0 0120.729-66.872 3168.41 3168.41 0 00-.706 6.359c-.198 1.795.543 3.899 1.642 5.676-.02 1.284-.039 2.568-.063 3.849-.458 25.71-1.35 51.409-2.402 77.105-.59 14.463-1.234 28.922-1.875 43.381-.267 6.072 5.95 11.877 12.521 11.604 2.061-.086 4.172-.518 6.016-1.406.031 1.715.066 3.434.109 5.15.143 5.798 4.657 10.629 10.859 11.399 5.927.737 12.3-2.666 13.744-8.316 1.626-6.367 2.495-12.827 2.984-19.319a1401.865 1401.865 0 00-.613 31.832c-2.95.004-5.896.007-8.845 0a27.85 27.85 0 00-2.857-.424 855.605 855.605 0 00-109.613-4.201c-3.38.086-6.761.205-10.141.33.496-10.171.947-20.35 1.385-30.526 1.91.432 3.905.432 5.709-.216z" fill="#FFFFF7"/><path d="M725.137 440.385a471.606 471.606 0 00-3.819-28.533 441.628 441.628 0 00-2.399-13.294c-.64-3.27-4.665-5.205-7.929-4.798-3.745.467-5.942 3.212-6.264 6.578-.691 7.212-1.382 14.424-2.069 21.639-.349 3.665-.703 7.33-1.052 10.995-.159 1.655-.318 3.309-.473 4.968l-.237 2.481c-.043.443-.124.892-.128 1.335v.068c-.008.018-.012.033-.02.054 0 .004-.003.011-.003.018-.357.076-.718.187-1.072.27-.908.208-1.828.385-2.748.554-1.812.341-3.632.633-5.464.885l-.738.097c-.19.021-.543.064-.636.072-1.102.111-2.201.23-3.303.327-7.506.651-15.059.709-22.593.532-15.272-.356-30.502-1.349-45.786-1.385-15.727-.036-31.45.49-47.149 1.313-14.318.752-28.62 1.759-42.918 2.82 1.777-12.441 3.046-24.937 3.57-37.482.093-2.274-1.397-4.475-3.489-5.683.543-4.95 1.176-9.892 1.855-14.827.156-1.136.319-2.276.478-3.413.089-.633.182-1.262.271-1.895.016-.108.035-.249.062-.421.369-2.504.742-5.007 1.118-7.507.757-5.003 1.526-10.006 2.271-15.013 1.49-10.021 2.915-20.056 3.943-30.127 1.129-11.05 1.766-22.139 1.553-33.238-.066-3.345-2.702-6.133-6.265-6.575-3.241-.403-7.335 1.503-7.925 4.794a973.32 973.32 0 00-2.306 13.362c.163-4.776.284-9.556.342-14.337.112-8.952.031-17.908-.318-26.857-.338-8.69-1.138-17.358-1.491-26.045-.174-4.32-.213-8.647.062-12.966.066-1.047.152-2.094.257-3.14.046-.464.097-.928.155-1.392-.016.136.132-.921.174-1.284.066-.378.167-.986.163-.964.066-.367.136-.731.206-1.097a58.68 58.68 0 01.61-2.734c.407-1.64.884-3.262 1.439-4.863.307-.888.637-1.773.994-2.647.144-.349.291-.694.439-1.043.031-.072.058-.133.081-.191.039-.072.082-.162.136-.27.761-1.514 1.56-3.003 2.465-4.445a40.965 40.965 0 012.088-3.022c.066-.086.442-.564.663-.845.222-.252.555-.64.555-.64a39.228 39.228 0 012.612-2.619 39.012 39.012 0 011.968-1.669c.136-.108.272-.208.408-.313-.047.047.822-.575.966-.669 3.062-2.01 4.813-5.909 2.581-9.118-1.96-2.819-6.555-4.546-9.839-2.391-14.935 9.794-21.603 25.825-23.268 42.216-.923 9.1-.275 18.25.342 27.346.625 9.169 1.028 18.341 1.145 27.527.458 36.831-3.024 73.562-5.504 110.286-1.242 18.376-2.235 36.774-2.367 55.19-.058 8.031.38 17.185 8.48 22.023 4.332 2.59 9.645 2.5 14.597 2.579a2916.828 2916.828 0 00165.794-2.061c4.89-.201 9.784-.392 14.675-.637 4.459-.219 9-.705 12.975-2.744 10.087-5.161 7.979-16.29 7.079-25.135z" fill="#F2EFE9"/><path d="M1385.67 129.288c-101.97-2.305-514.363-1.018-573.175.025-3.742.065-10.868 2.158-11.655 15.902-.144 2.496.834 94.208 1.257 137.316.427 43.838.866 87.673 1.3 131.511.245 24.674.489 49.345.738 74.019.023 2.331.675 4.709 1.843 6.824 2.333 5.524 7.84 9.819 14.706 9.582 36.126-1.241 521.436-.907 557.376 2.125 2.54.216 5.08.446 7.61.684V129.288z" fill="#FFFFF7"/><path d="M1303.4 379.696c-.49-4.215-1.37-8.366-2.89-12.369-1.44-3.777-3.28-7.428-5.55-10.834-1.71-2.561-5.38-3.547-8.24-2-2.76 1.496-3.87 5.057-2.15 7.629 2.41 3.618 4.33 7.683 5.55 11.769-6.94-1.205-14 .147-20.92 1.78a8.54 8.54 0 00-.71.072c-6.98.957-14 1.802-21.05 2.529-.2-.047-.39-.09-.58-.14-.53-.141-1.05-.317-1.58-.472-.14-.039-.23-.068-.3-.082-.07-.036-.16-.083-.29-.148-.87-.439-1.71-.86-2.53-1.381a8.41 8.41 0 01-.47-.392c-.4-.335-.76-.691-1.11-1.058a.149.149 0 01-.04-.039c-.1-.137-.2-.27-.3-.41-.34-.497-.62-1.007-.89-1.536-1.4-2.719-5.6-3.428-8.24-2-3 1.626-3.56 4.899-2.15 7.629.09.183.19.36.29.54-4.77.115-9.52.521-14.12 1.575-13.51-2.194-27.37-1.525-41.02-.529-8.21.601-16.38 1.108-24.55 1.309-5.28-.23-10.54-.521-15.8-.874-12.28-.827-25.03-2.032-36.92-3.521-2.63-.331-5.55.403-6.86 2.586-13.12-1.46-26.31-2.251-39.54-2.036-.29.004-.57.015-.86.022-13.78-1.946-27.58-3.694-41.66-.464-1.64.378-3.1 1.583-3.86 3.047-2.85-.252-5.698-.529-8.539-.839.058-.154.112-.312.151-.474.773-3.137-1.028-5.798-4.203-6.859a8.224 8.224 0 00-.384-.123c-.074-.039-.16-.086-.276-.144-.334-.172-.668-.334-.994-.521-.058-.033-.962-.658-.892-.576a15.145 15.145 0 01-.792-.683c-.26-.241-.505-.489-.745-.745-.02-.036-.326-.402-.458-.593-.097-.137-.183-.281-.268-.421a768.567 768.567 0 00-1.133-40.101c-.062-1.144-.489-2.27-1.188-3.208.221-7.349.446-14.693.668-22.042.066-2.215-1.568-4.262-3.699-5.093-2.03-.795-5.073-.561-6.571 1.151-.38.432-.738.874-1.075 1.316.004-.093.004-.187.008-.28.182-8.489.368-16.973.551-25.462.039-1.816.066-3.636.139-5.453.035-.881.082-1.762.148-2.64.043-.547.093-1.097.151-1.644.012-.115.121-.849.132-.956.307-1.781.78-3.536 1.456-5.227.039-.097.066-.169.081-.219.035-.061.078-.13.124-.209.183-.313.346-.633.536-.942.186-.309.384-.615.59-.914.085-.122.594-.762.64-.845.416-.453.854-.892 1.32-1.298.179-.155.361-.306.547-.457.093-.061.357-.245.443-.291.178-.098 1.525-.759 1.331-.727.776-.27 1.595-.435 2.41-.565 3.113-.485 5.131-4.194 4.204-6.859-1.087-3.115-4.068-4.413-7.402-3.895-8.558 1.334-14.636 8.47-16.992 15.808-2.643 8.226-1.894 17.448-2.08 25.937-.384 17.692-.769 35.385-1.149 53.074-.19 8.726-.377 17.452-.567 26.182-.19 8.69-.764 17.459-.516 26.145.128 4.532 1.37 8.643 4.456 12.197 2.554 2.939 6.062 4.838 9.804 6.19 8.29 2.996 17.349 1.112 25.736-.449 17.657-3.284 36.457-1.004 54.607-.015 19.02 1.036 38.07 1.532 57.12 1.63 37.88.194 75.75-1.202 113.57-3.104 18.8-.946 37.67-1.705 56.44-3.108 7.89-.59 16.71-2.554 20.31-9.895 1.85-3.766 2.06-7.888 1.59-11.956z" fill="#F2EFE9"/><path d="M719.191 207.958c.139-6.097 1.3-13.107-1.351-18.869-2.771-6.017-9.253-8.201-15.835-8.639-6.796-.45-13.744-.036-20.551 0-14.679.082-29.358.161-44.036.244-29.486.162-58.975.313-88.461.5-3.605.022-16.805 1.352-18.474 2.068-8.24 3.532-8.244 13.139-8.861 20.362-1.347 15.779 1.168 111.93.489 144.19-.338 16.193-.648 32.389-.656 48.586-.004 7.977.066 15.952.241 23.926.089 4.046-.109 20.959 1.952 24.437 2.36 3.985 6.901 4.578 11.341 4.711a3986.281 3986.281 0 0039.099.964c17.551.346 35.109.562 52.664.612 17.427.05 30.258.129 47.681-.176 8.775-.155 17.55-.36 26.322-.619 3.92-.115 8.624.342 12.358-.881 5.072-1.666 5.86-6.295 6.097-10.672.221-4.018-.349-63.225-.586-87.176-.276-27.401.407-136.752.567-143.568zm588.469 159.455c-.19-4.129-2.45-107.589-2.82-110.736-.72-6.028-4.45-10.952-10.47-13.402-5.2-2.118-10.91-2.658-16.55-2.676-7.53-.021-15.06.051-22.58.076-30.08.101-60.17.201-90.25.306-30.21.1-60.42.205-90.63.305l-44.93.151c-7.62.026-12.21-.136-19.83-.108-6.27.026-24.838-2.399-31.312 3.356-3.338 2.968-2.581 10.981-2.348 15.028.497 8.586-1.211 95.233-.718 103.819.241 4.147.384 8.312.73 12.452.314 3.784 1.121 7.848 4.133 10.657 3.497 3.259 8.228 3.417 12.874 3.73 4.595.31 9.191.583 13.791.82 9.07.468 272.02-2.021 281.23-1.615 4.21.187 8.58.198 12.38-1.744 3.69-1.885 6.11-5.453 6.92-9.229.8-3.709.56-7.435.38-11.19z" fill="#fff"/><path d="M355.572 459.042c-.069-11.603-.151-23.21-.271-34.813-.245-23.33-.784-46.651-1.572-69.97-1.587-46.996-3.874-93.985-4.052-141.014-.101-26.479.52-73.742-1.603-75.803a14.276 14.276 0 00-3.163-4.356c-3.769-3.535-8.803-4.535-13.813-5.553-3.909-.795-231.549-57.506-233.237-57.406-12.32.723-73.964.526-74.683.554-4.971.205-9.42 3.799-9.322 8.64 1.323 65.782 2.305 130.698 2.705 196.491.396 65.456.299 130.914-.283 196.37-.33 36.777-.811 73.551-1.452 110.322-.085 4.845 4.37 8.485 9.373 8.686l76.743 3.086a8.662 8.662 0 004.274-.924c3.19-.461 6.217-1.454 9.248-2.626 9.44-3.647 228.176-79.501 232.698-83.882 2.651-2.564 4.176-5.51 5.115-8.654.416-.712.722-1.467.862-2.255 2.166-12.244 2.503-24.516 2.433-36.893z" fill="#FFFCF5"/><path d="M98.31 167.922c-.414-32.239-1.424-64.488-3.434-96.68l.081-.981c-17.248.56-70.859.392-71.526.417-4.972.205-9.42 3.798-9.323 8.64 1.324 65.782 2.306 130.697 2.701 196.491A13087.159 13087.159 0 0115.075 582.5c-.086 4.845 4.37 8.485 9.373 8.686 24.587.989 49.17 1.978 73.758 2.964.093-7.323.182-14.65.256-21.973a7594.16 7594.16 0 00-.043-156.969c-.271-26.095.501-199.743-.108-247.286zm214.988 289.21c-3.481-2.964-8.612-3.776-12.804-1.532a238.573 238.573 0 01-15.796 7.73 228.112 228.112 0 01-7.448 3.15l-.547.227c-.575.23-1.157.442-1.735.662a242.118 242.118 0 01-38.362 10.981c-5.108 1.018-10.448 2.219-15.692 2.662-.376.021-1.036.061-1.316.093a210.589 210.589 0 01-5.918.604c-2.741.245-5.485.446-8.229.648-10.428.77-20.989 1.496-31.193 3.755-5.135 1.137-10.223 2.759-14.993 4.946.33-4.978.656-9.953.99-14.931.322-4.848-4.262-8.992-9.144-9.6a10.872 10.872 0 00-2.197-.043c2.379-28.62 4.716-57.24 6.773-85.882 1.393-19.369 2.658-38.745 3.722-58.132 1.055-19.192 2.313-38.464 1.525-57.686-.803-19.617-4.863-38.838-7.902-58.214-.151-.964-.295-1.932-.443-2.896 0-.011-.003-.014-.003-.025-.082-.611-.171-1.223-.253-1.838a232.95 232.95 0 01-.869-7.345c-.458-4.51-.761-9.035-.831-13.563-.073-4.637.101-9.277.598-13.891.054-.504.116-1.007.175-1.511a1.165 1.165 0 01-.039.09c.015-.036.027-.076.039-.112l.035-.291c.035-.334.139-.59.209-.673.121-.744.152-1.553.272-2.201.07-.37.904-3.834 1.339-5.273.043-.075.085-.147.132-.223 4.995 1.155 10.964-2.528 12.074-7.053 1.37-5.579-1.839-10.014-7.343-11.985-6.54-2.341-14.244.18-19.088 4.496-4.25 3.788-6.33 9.23-7.343 14.488-1.937 10.032-2.472 20.204-1.875 30.368.621 10.474 4.006 245.847.629 286.351-.834 10-1.665 19.999-2.484 29.998-.368 4.503-.625 8.755.466 13.222 1.397 5.733 5.469 10.341 11.407 12.42 6.714 2.352 13.068-.622 19.041-3.241 4.646-2.036 138.629-27.642 151.503-42.097 3.12-3.504 2.596-10.618 4.576-14.783 1.843-3.899 2.045-8.719-1.658-11.87zM153.207 156.437c.019.025.097.011.275-.065.02-.007.031-.014.051-.021.058-.015.112-.033.167-.047a.199.199 0 01.031-.036h.003c.004-.004.008-.007.008-.014a4.36 4.36 0 01.171-.188c.058-.061.109-.111.151-.158-.07.119-.132.216-.19.299.505-.205.377-.108.058.029.078-.022.125-.036.121-.033a6.167 6.167 0 01-.241.094c-.159.208-.252.266-.233.198a.056.056 0 01.012-.018c.027-.044.062-.09.093-.137l-.012.003h-.004a4.605 4.605 0 01-.582.159.548.548 0 01-.19-.007c.02.01.148-.015.311-.058z" fill="#F2EFE9"/><path d="M313.155 172.367c-5.888-2.406-63.186-16.135-87.389-21.293-12.696-2.705-26.466-7.007-39.162-9.711l-19.235-4.101c-5.437-1.158-11.321-2.78-16.883-1.298a12.92 12.92 0 00-3.901 1.751c-1.56.608-2.817 1.756-3.4 3.227-1.102 1.413-1.071 3.384-.302 5.025.652 45.377 1.304 90.751 1.96 136.129l2.002 139.28c.377 26.084.749 52.172 1.126 78.256.035 2.367 1.836 4.82 4.417 5.378 7.118 1.528 14.197.809 21.304-.396 6.862-1.165 13.7-2.467 20.539-3.737a3573.123 3573.123 0 0040.873-7.834 3504.586 3504.586 0 0060.911-12.618c5.376-1.162 11.186-2.269 15.731-5.352 3.26-2.212 5.655-4.949 6.994-8.521 1.211-3.226 1.257-6.769 1.323-10.15.074-3.985.148-7.974.225-11.959.295-2.475.439-4.96.509-7.403.279-9.733.198-19.484.279-29.22l.501-59.492.505-60.207c.167-19.747-1.223-90.698-1.223-101.798-.004-8.992-4.952-12.83-7.704-13.956zM159.933 494.766c0-.13-.004-.263-.004-.392.167.136.341.27.516.399-.167-.004-.341 0-.512-.007zm138.788-26.437c.05-.198.081-.396.108-.593.392.108.788.194 1.192.244-.431.126-.866.238-1.3.349z" fill="#fff"/><path opacity=".25" d="M426.94 591.801c-2.457-3.474-7.432-5.453-11.515-6.744-4.06-1.288-8.396-1.845-12.665-2.115-3.458-.219-6.939-.259-10.429-.194-5.484-.205-10.983-.04-16.491.338-9.423.651-18.96 1.385-28.271 2.906-4.432.723-8.825 1.716-13.04 3.198-4.347 1.529-9.777 3.974-9.777 9.032 0 5.661 6.823 7.247 11.698 7.449 4.797.201 9.641-.011 14.438-.169 9.583-.317 19.146-.763 28.736-.583 9.459.176 18.933.665 28.387.133 4.627-.259 9.676-.478 14.147-1.669 5.519-1.471 8.007-7.021 4.782-11.582zm-92.768 4.223a10.21 10.21 0 01-.726-.212.851.851 0 01.726.212zM552.4 565.505c-5.841-6.708-16.216-8.179-24.921-8.755-3.183-.209-6.346-.169-9.497.032-9.626-2.579-19.965-1.205-29.758-.302-4.995.461-9.986.989-14.966 1.586-4.766.572-9.862.835-14.368 2.504-7.576 2.805-20.543 13.7-9.385 20.193 8.132 4.733 18.801 3.323 27.836 2.737 20.497-1.331 41.04.546 61.552-.313 4.798-.202 10.057-.615 13.523-4.111 4.009-4.054 3.578-9.442-.016-13.571zm429.032-10.532c-1.401-4.942-6.257-8.057-11.069-9.956-2.197-.867-4.541-1.129-6.691-1.892-7.996-2.838-16.072-6.276-24.638-5.298-8.985 1.029-17.256 4.917-26.357 5.241-8.78.316-17.613-.81-26.237 1.266-7.697 1.849-17.439 7.229-17.85 15.509-.497 9.964 13.604 12.24 21.653 12.15 4.859-.054 9.645-.971 14.446-1.564 4.537-.561 9.117-.849 13.689-.95 9.699-.216 19.208.738 28.81 1.831 4.797.543 9.486.583 14.24-.317 4.533-.856 9.028-2.438 13.22-4.237 4.956-2.122 8.255-6.603 6.784-11.783zm315.898 85.458c-.67-4.838-10.56-11.086-11.65-11.697-21.2-11.784-46.4-7.539-69.49-4.691-6.15.759-12.33 1.382-18.53 1.511-6.4.133-12.65-.59-19-1.191-6.13-.582-12.26-.46-18.23 1.094-5.5 1.428-10.76 3.831-15.48 6.798-4.47 2.809-10.34 6.424-11.47 11.711-1.21 5.647 2.76 10.334 8.04 12.683 5.56 2.474 11.81 3.524 17.88 4.247 6.06.723 12.17.828 18.26.59 12.67-.492 25.21-2.474 37.87-3.219 6.42-.381 12.84-.37 19.26.137 6.44.511 12.85 1.359 19.3 1.762 11.48.716 23.76-.205 33.82-5.855 5.32-2.986 10.29-7.64 9.42-13.88z" fill="#C4C1BB"/><path d="M480.276 513.826a131.82 131.82 0 01-.121-25.836c.09-.953-.57-1.586-1.397-1.831-.563-1.363-2.593-1.928-3.555-.924a2.54 2.54 0 00-1.328-.047c-1.102-.95-3.353-.838-3.613.823-.105.662-.198 1.328-.295 1.993-1.079-.414-2.542.007-2.957 1.234a2.474 2.474 0 00-1.611.37c-1.223-.482-3.047.097-3.163 1.73-.408 5.701-.159 11.366.628 17.024 0 .011 0 .018-.003.029h.007c.024.176.043.352.07.525.171 1.165 1.149 1.547 2.123 1.392.132.295.307.583.532.856.846 1.025 2.239 1.162 3.14.54.341.5.861.737 1.413.769.756 1.863 3.927 1.63 4.129-.669.027-.316.058-.636.086-.953.062.371.124.741.194 1.112.139.737.698 1.172 1.366 1.338l.046.525c.268 2.532 4.572 2.557 4.309 0z" fill="#F28168"/><path d="M476.286 573.436v-.083c2.367-11.805 2.674-24.099 4.133-36.029.734-5.989 1.456-11.917.648-17.934-.399-2.982-1.079-5.924-1.781-8.855-.613-2.554-2.232-6.183-1.223-8.737.943-2.385-1.475-3.23-2.425-.856-.024.061-.043.122-.066.187a2.747 2.747 0 00-.924-.112l-.012-.51c-.074-2.461-4.087-2.792-4.277-.439a2.392 2.392 0 00-2.115.374c-.447-1.716-3.423-2.32-4.072-.241-3.139 10.06.715 20.135 2.372 30.091 1.968 11.83 3.206 23.8 4.774 35.684.302 2.302.737 4.669.698 7.014-.198.978 4.246 1.277 4.27.446z" fill="#F28168"/><path d="M461.871 574.486c1.77-1.068 3.404-2.072 5.224-3.064 1.3-.709 2.589-1.479 4.095-1.734 1.42-.241 5.243-.112 5.433-.104 1.852.05 1.801 3.168 1.883 4.891.147 3.108-3.074 2.63-5.48 2.813-3.653.277-7.122.849-10.779.935-.95.022-2.592.086-3.132-.46-.314-.317-1.397-.774 2.756-3.277z" fill="#27374D"/><path d="M505.697 569.224l-.035-.075c-2.988-11.683-8.08-23.042-11.957-34.498-1.945-5.751-3.878-11.441-7.243-16.642-1.669-2.576-3.574-5.014-5.496-7.431-1.672-2.105-4.742-4.817-4.936-7.529-.183-2.535-2.76-2.402-2.593.13.004.065.015.129.019.194a2.608 2.608 0 00-.892.245l-.233-.461c-1.141-2.219-4.957-1.018-4.103 1.205a2.267 2.267 0 00-1.77 1.133c-1.156-1.402-4.145-.838-3.826 1.306 1.525 10.377 9.45 18.142 15.315 26.624 6.97 10.078 13.328 20.563 19.953 30.839 1.285 1.993 2.717 3.993 3.699 6.151.248.971 4.44-.421 4.098-1.191z" fill="#F28168"/><path d="M493.045 575.821c1.09-1.677 2.088-3.241 3.26-4.871.834-1.161 1.634-2.377 2.868-3.212 1.165-.787 4.665-2.215 4.84-2.287 1.688-.702 3.109 2.122 3.994 3.64 1.595 2.737-1.529 3.607-3.61 4.744-3.155 1.723-6.012 3.64-9.26 5.194-.846.403-2.294 1.126-3.035.852-.423-.154-1.615-.129.943-4.06z" fill="#27374D"/><path d="M362.419 592.679c.873-6.931 5.616-39.598 6.35-39.184.966.539 1.898 2.169 2.911 2.482.582-.32 1.498-.18 1.723.482.337.086.675.172 1.017.262.007.004.015.004.023.007.512-.579 1.595-.327 1.972.328.132.23.24.467.333.705.342.259.645.564.897.942.05.076.089.151.12.227.338.19.559.536.462 1.014-.524 2.622-4.421 16.844-5.465 19.272-1.506 4.424-3.089 8.87-4.991 13.132-.718 1.615-2.1 3.287-4.219 3.036-2.169-.263-1.358-.936-1.133-2.705z" fill="#C67F60"/><path d="M352.852 593.247c1.859-.924 3.582-1.802 5.484-2.647 1.358-.604 2.713-1.273 4.234-1.406 1.436-.13 5.232.298 5.426.32 1.84.194 1.506 3.294 1.432 5.021-.132 3.107-3.299 2.381-5.717 2.377-3.664-.011-7.176.292-10.824.09-.947-.05-2.593-.115-3.078-.701-.283-.342-1.32-.881 3.043-3.054z" fill="#27374D"/><path d="M409.467 593.736c-1.273-6.877-6.672-39.453-5.841-39.252 1.09.266 2.48 1.583 3.547 1.619.462-.461 1.382-.565 1.797.01.349-.003.699-.01 1.056-.014h.023c.314-.687 1.432-.73 1.991-.201.198.187.373.385.536.59.403.158.792.374 1.149.669.069.057.132.122.182.183.38.097.699.367.753.852.299 2.651.889 17.316.625 19.92-.097 4.636-.264 9.319-.788 13.901-.198 1.738-1.013 3.702-3.124 4.015-2.158.323-1.58-.533-1.906-2.292z" fill="#C67F60"/><path d="M399.244 593.952c1.824-.985 3.508-1.917 5.379-2.827 1.335-.651 2.663-1.359 4.18-1.547 1.432-.176 5.24.126 5.434.141 1.847.133 1.634 3.244 1.626 4.971-.015 3.111-3.206 2.489-5.62 2.564-3.66.112-7.161.529-10.813.45-.951-.022-2.596-.029-3.105-.601-.299-.331-1.358-.838 2.919-3.151z" fill="#27374D"/><path d="M415.653 464.29c-1.11-8.521-2.643-16.995-4.7-25.34-.737-2.985-4.067-2.776-5.379-.845-.062-.503-.12-1.007-.186-1.511-.451-3.481-5.267-4.514-6.036-.726-.201 1-.372 2-.52 3.003l-.45.011c-.202-.791-.411-1.583-.633-2.374-.667-2.367-3.85-2.953-5.243-1.378-.392.263-.749.648-1.044 1.177a2.735 2.735 0 00-.617-.133 3.012 3.012 0 00-1.234.133c-.26-2.838-4.58-4.151-5.896-1.378a2.955 2.955 0 00-.966-.586c-1.46-.554-3.167-.015-3.936 1.435-.225.424-.431.856-.629 1.288a3.732 3.732 0 00-1.548 1.007c.171-1.666-.602-3.309-2.317-3.741-1.53-.385-3.567.622-3.816 2.352-1.145 7.967-6.376 16.711-7.502 26.955-3.788 34.508-3.21 78.821-5.321 105.858-.194 2.486-.384 4.971-.567 7.457-.167 2.258-.597 4.74 1.079 6.557 1.549 1.672 3.718 1.683 5.814 1.82l7.507.492c1.482.098 2.561-1.194 3.004-2.467 5.519-15.945 11.927-43.597 17.263-70.109 2.678 21.552 5.566 42.543 8.613 58.096.477 2.442.962 4.884 1.451 7.326.443 2.216.703 4.723 2.725 6.032 1.867 1.209 3.865.651 5.829.238 2.345-.493 4.689-.99 7.033-1.482 1.389-.292 2.042-1.82 2.107-3.158 1.549-29.984.028-85.993-3.885-116.009z" fill="#B38740"/><path d="M384.674 340.063c.539-.928 1.067-1.813 1.548-2.72.804-6.6 2.422-12.984 9.765-15.121 4.301-1.251 13.344-2.143 16.612.917 3.078 2.885 4.758 6.982 5.189 10.974.695 6.41-1.871 13.6-6.905 18.247-.465 1.496-.78 3.036-1.028 4.568-.66 4.086.178 10.503.178 14.625 0 1.341-1.544.295-2.872.784-.31 1.586-2.22 2.503-3.889 2.349a3.646 3.646 0 01-.853.442c-5.904 2.032-6.684 3.583-7.021.392l.248-16.916c-2.837-1.097-5.313-1.032-7.18-3.395-1.972-2.493-2.682-6.345-2.783-9.891-.935-.213-1.879-.598-2.278-1.461-.664-1.406.59-2.629 1.269-3.794z" fill="#C67F60"/><path d="M423.23 331.218c-.955-2.763-2.368-4.439-4.798-6.1-1.412-.968-2.93-1.72-4.416-2.572-1.378-.788-1.669-2.151-2.826-3.187-2.15-1.928-4.991-2.082-7.677-1.198-.411.137-1.51.666-1.995.407-.473-.252-.322-1.295-.469-1.719-.396-1.137-1.479-2.004-2.702-2.335-2.585-.701-6.086.601-7.599 2.59-.416.543-.687 1.36-1.2 1.82-.655.59-1.711.615-2.484 1.054-1.187.676-1.897 1.874-2.192 3.111-.625 2.615.43 5.406 2.425 7.287 1.988 2.094 2.764 3.284 3.276 4.791.346 1.015.59 2.054 1.265 2.939.711.931 1.728 1.446 2.915 1.669 1.723.323 3.113-.033 3.978 1.708.715 1.439.672 3.097 1.037 4.622a11.32 11.32 0 001.533 3.539c1.525 2.335 3.772 4.122 6.082 5.766.803.572 1.754.184 2.282-.482 2.608-2.262 4.968-4.737 7.312-7.229 2.154-2.292 4.351-4.64 5.861-7.356 1.478-2.669 1.416-6.158.392-9.125z" fill="#27374D"/><path d="M419.671 396.738c-.944-17.11-8.993-29.598-9.032-29.721-1.16-3.614-6.532-4.107-10.646-1.856-8.073 4.421-13.355 10.679-16.806 17.729-3.027 6.19-9.338 35.954-11.721 48.018-3.279 5.46-6.284 11.046-8.368 17.017-1.649 4.722-3.132 10.948 2.015 14.283.64.413 1.509.305 2.161 0 4.2-1.982 8.089-4.399 11.691-7.144 6.737.342 14.597.09 17.038.094 4.269.011 14.601-.011 18.246-2.489 12.179-8.284 6.112-43.428 5.422-55.931z" fill="#FFFCF5"/><path d="M490.312 492.698c-.492-1.328-1.377-2.425-2.243-3.536v-16.768c0-.655-.283-1.141-.702-1.457a67.914 67.914 0 00-.361-6.385c.535-4.78.357-9.628-.575-14.362-.264-1.331-.667-2.791-1.284-4.129 1.789-2.093.384-5.194-2.147-6.708-.318-.191-.644-.36-.978-.521 1.65-1.094 1.952-3.763-.52-4.367-3.718-.906-7.526-1.507-11.368-1.687-3.058-.144-8.116-.849-9.552 2.446-.659 1.511-.733 3.334-1.098 4.924a111.115 111.115 0 01-1.362 5.327c-1.017 3.611-2.217 7.172-2.915 10.855-1.39 7.298-1.778 14.823-2.558 22.193l-1.188 11.218c-.159 1.504-.496 3.093-.038 4.572.512 1.651 1.999 2.625 3.57 3.377 7.627 3.644 31.776 2.151 33.495 1.111 2.185-1.327 2.628-3.938 1.824-6.103zm-3.877 2.32c-.085.259-.299.449-.594.593a2.752 2.752 0 00-.085-1.007c.248.025.497.011.737-.036 0 .155-.011.306-.058.45z" fill="#627A94"/><path d="M474.481 433.501a37.169 37.169 0 00-4.366-14.074 1.812 1.812 0 00-1.033-.864 51.803 51.803 0 00-.178-1.348c-.206-1.374-1.576-1.644-2.709-1.245a254.084 254.084 0 001.599-4.348c.854-2.421-3.233-3.443-4.103-1.047-1.234 3.395-2.445 6.801-3.668 10.2-.966 2.691-2.332 5.612-2.216 8.496.105 2.619 1.677 4.604 4.448 5.252 3.202.744 6.796.687 10.076.971 1.083.093 2.251-.993 2.15-1.993z" fill="#fff"/><path d="M463.361 359.895c1.611 2.518 6.043 3.529 8.896 3.979l-.085.719c4.735-1.194 7.584-.669 12.404-1.414.384-1.381-3.792-5.093-3.221-6.424 5.499-4.172 13.429-8.765 13.413-15.207-.012-4.01-1.863-7.226-4.626-10.373-2.931-3.342-11.819-3.611-16.232-2.755-7.529 1.463-9.408 6.995-10.898 13.495-.571.856-1.188 1.69-1.824 2.564-.8 1.101-2.174 2.202-1.669 3.662.306.896 1.207 1.36 2.115 1.658-.272 3.539.031 7.438 1.727 10.096z" fill="#F28168"/><path d="M491.772 369.852c-1.219-3.755-4.312-8.906-6.078-12.471-.268-.543-.73-.834-1.25-.935-.505-.475-1.207-.655-1.871-.593-1.094-1.454-3.796-.889-4.025.665a.816.816 0 00-.101.04c-1.261-.439-2.856.14-2.973 1.363a2.292 2.292 0 00-1.009.467c-.943-.089-1.921.45-2.344 1.414a3.32 3.32 0 00-.221 2.011c-.039.352.031.73.244 1.118 1.002 1.802 4.782 9.446 6.455 11.147.815.831 13.246-4 13.173-4.226z" fill="#F28168"/><path d="M502.55 323.377c-.656-2.666-3.656-2.91-5.904-1.77-3.081 1.565-5.309 4.399-6.322 7.539-3.361-1.428-7.615-2.237-11.217-2.18-8.166.13-11.434 3.338-11.868 4.115-.765 1.363-.901 2.824-.466 4.306.473 1.611 1.684 2.909 2.228 4.485.469 1.363.45 2.737 1.343 3.971.908 1.251 3.101 1.381 3.59 2.892.438 1.341.485 3.816-.773 4.985-1.176 1.093 2.407 2.374 3.486 3.532 1.882 2.021 5.049 5.19 8.216 4.794 3.035-.377 5.678-3.805 7.456-5.844 2.282-2.622 4.137-5.539 5.108-8.805.9-3.029.815-6.352-.319-9.277a15.01 15.01 0 004.235-5.499c.951-2.122 1.773-4.942 1.207-7.244z" fill="#574443"/><path d="M524.917 533.543c-2.235-2.737-4.622-5.395-6.415-8.413-1.681-2.827-2.64-5.999-3.082-9.193-.928-6.705-.004-13.517.008-20.243.011-6.794-1.227-13.405-3.416-19.88-2.162-6.399-4.999-12.574-7.405-18.894-2.453-6.442-4.355-13.002-4.693-19.858-.368-7.478.59-14.934 1.336-22.365.834-8.327 1.063-16.556.042-24.879-1.048-8.568-2.922-17.021-4.894-25.441-.842-3.597-6.447-2.385-6.416.939-.923.453-1.61 1.316-1.626 2.59l-.023 2.23a2.694 2.694 0 00-.683-.223c-.71-1.68-3.156-2.245-4.778-1.407a4.2 4.2 0 00-.621-.313c-.307-2.237-3.38-4.028-5.531-1.913-6.997 6.877-11.639 15.786-13.122 25.135-2.034 3.359-4.339 6.593-6.652 9.797-2.38 3.299-4.782 6.586-6.936 10.018-2.104 3.352-4.289 7.815-.9 11.16 5.542 5.468 13.817 1.216 18.416-3.319.403 1.169.815 2.338 1.226 3.503 2.504 7.053 4.968 14.125 6.936 21.322 1.937 7.082 3.276 14.233 3.897 21.52.609 7.143.799 14.315 1.676 21.437.874 7.107 2.438 14.013 5.426 20.631 2.845 6.306 6.532 12.345 8.287 19.028 1.956 7.434 1.49 15.329 4.995 22.404 3.019 6.097 8.961 11.65 16.468 11.366 13.32-.507 16.922-5.014 16.856-8.6-.117-6.816-4.076-12.873-8.376-18.139z" fill="#F07556"/><path d="M502.189 363.704c-1.293-4.967.318-10.207-1.805-15.045-.935-2.129-2.325-4.025-2.884-6.287-.5-2.043-.624-4.165-1.424-6.14-.935-2.313-2.608-4.478-5.247-5.273-2.907-.874-5.55.694-6.54 3.226a22.314 22.314 0 00-.745 2.288c-.881-.471-1.988-.475-2.923-.054a3.1 3.1 0 00-1.285-.266c-1.249 0-2.821.888-3.011 2.125l-.105.709c-2.352-2.068-6.761.597-4.809 3.503 1.265 1.885 2.833 4.061 2.93 6.356.086 2.082-1.762 3.514-2.938 5.104-1.288 1.741-1.929 3.737-1.498 5.841.326 1.604 2.045 3.331 1.452 4.96-.633 1.737-1.976 3.101-2.321 4.971-.423 2.284.461 4.464 2.39 5.942 1.735 1.327 3.99 1.928 6.222 1.791 2.771-.169 5.108-1.385 7.7-2.144 1.141-.334 2.31-.622 3.482-.259.986.306 1.871.928 2.849 1.281 2.266.809 4.839.629 6.978-.443 5.119-2.56 4.708-7.661 3.532-12.186z" fill="#574443"/><path d="M908.935 399.885c-.52-.424-1.277-.615-1.96-.489.05-.205.105-.407.155-.612.629-2.467-3.454-3.377-4.126-.924-1.327 4.831-2.581 9.711-3.213 14.668-.318 2.489-1.731 8.546 2.895 10.276 2.674 1 7.169 2.043 7.801.399.881-2.294-2.581-8.898-1.944-11.265a70.438 70.438 0 001.486-6.841c.311-1.874.602-3.827-1.094-5.212zm64.323 50.5c.132-.871.159-1.759.062-2.676-.019-.173-1.323-4.108-1.917-5.482.011-.223-6.645-28.12-6.684-28.458-.978-8.345-2.988-16.7-5.127-24.858-.353-1.352.082-.69-1.001-.302-.57-1.363-1.521-2.435-3.303-2.518-4.156-.194-3.279 4.658-2.918 7.039 1.082 7.108 2.313 14.582 4.975 21.351.066.165.132.338.202.518.256 1.816.357 3.672.675 5.449.718 3.989 2.383 7.798 3.8 11.607 1.238 3.327 4.102 8.733 6.742 10.848.062.288.104.583.12.881.047.907-.128 1.777.035 2.684.237 1.327.978 2.481 1.82 3.561.019 1.025-.085 2.053-.388 3.089-.287.975 1.331 1.583 1.805.644a11.23 11.23 0 001.059-3.154c.016-.062.027-.126.035-.198.008-.007.008-.018.008-.025zm-55.975 64.688c-.873-.935-1.96 2.41-2.553 3.507-.28.518-.524 1.054-.738 1.601.004-.043.004-.09.008-.133.167-2.536-4.06-2.514-4.25 0-.528 7.078-.609 14.182-.586 21.279.008 3.215-.213 6.532.148 9.729.244 2.173.838 5.676 3.927 3.914 1.184-.677 1.483-1.903 1.685-3.072.322-1.842.578-3.698.857-5.543.482-3.179.936-6.366 1.324-9.557.419-3.474.761-6.96.958-10.452.148-2.705 1.285-9.068-.78-11.273z" fill="#7D483E"/><path d="M915.145 554.801c-.318-2.18-.621-1.989-2.608-2.144-.28-.021-2.022-.039-2.251-.003-1.386.226-1.832 2.161-1.933 3.042-.159 1.432-.765 4.202.85 5.086.718.392 1.611.288 2.414.284.904-.003 1.906.108 2.659-.456.819-.619.811-1.824.892-2.727.093-1.018.124-2.071-.023-3.082z" fill="#27374D"/><path d="M936.79 557.567c1.072-6.91 5.508-39.609 4.681-39.386-1.083.295-2.433 1.648-3.501 1.709-.473-.45-1.397-.529-1.797.057-.349.004-.698.008-1.055.015h-.024c-.337-.68-1.451-.694-1.995-.151-.19.19-.36.392-.52.604-.399.169-.78.392-1.129.698-.07.061-.128.122-.179.19-.376.105-.687.385-.725.871-.218 2.658-.377 17.329-.039 19.926.237 4.633.539 9.309 1.195 13.877.249 1.73 1.122 3.676 3.241 3.935 2.177.262 1.576-.579 1.847-2.345z" fill="#7D483E"/><path d="M947.056 557.693c-1.824-.982-3.512-1.91-5.387-2.817-1.335-.647-2.666-1.356-4.184-1.536-1.432-.172-5.239.137-5.434.151-1.843.141-1.622 3.248-1.61 4.975.023 3.111 3.213 2.482 5.628 2.55 3.659.104 7.16.511 10.816.424.951-.021 2.597-.036 3.101-.607.295-.328 1.355-.835-2.93-3.14z" fill="#27374D"/><path d="M953.577 408.704c.008-.053 11.147-1.953 12.043-2.816 1.491-1.435.994-3.978.458-5.665-1.23-3.895-2.585-7.769-3.982-11.628-1.087-6.532-3.431-12.852-6.924-18.675-2.383-3.924-16.08-5.881-17.555-7.525-.881-.982-11.022-.46-12.784.917-.998.223-12.971 2.5-16.895 8.327-3.35 4.971-4.103 8.061-6.129 13.6a72.957 72.957 0 00-2.503 8.463c-.629 2.683-1.657 5.87-1.417 8.629.249 2.827 2.997 4.215 5.589 5.043 1.576.5 3.21.831 4.863 1.014l.152.734c-.291 8.841-3.544 17.581-6.071 26.026-3.314 11.079-6.629 22.157-9.939 33.232l-4.972 16.617c-1.479 4.942-3.043 9.898-3.73 14.999-1.226 9.053.435 22.081 11.5 25.329 5.488 1.611 28.573-.022 31.123.82 5.516 1.82 10.977 1.701 16.666.899 1.444-.205 2.969-.446 4.437-.327 1.284.104 2.499.539 3.733.852 2.818.712 5.624.68 8.426-.072 2.539-.68 5.283-1.82 7.495-3.169 2.472-1.507 3.342-3.769 3.237-6.416-.217-5.518-1.44-11.057-2.895-16.398-2.9-10.661-12.711-72.448-13.926-92.81z" fill="#F7D5D9"/><path d="M948.166 345.249c-.279-1.762-.586-4.125-2.103-5.388-1.821-1.514-3.897-.467-5.24 1.007-1.479 1.619-2.527 3.489-3.458 5.413a49.087 49.087 0 00-1.296 2.849c-2.108.766-4.142 2.201-5.12 4.021-.031-.154-.062-.305-.081-.456-.322-2.504-4.576-2.41-4.262.126.513 4.161 3.35 8.071 7.867 9.243 4.537 1.177 8.636-1.543 11.054-4.913 2.468-3.449 3.283-7.845 2.639-11.902z" fill="#7D483E"/><path d="M953.895 370.995c-2.061-1.712-4.755-2.777-7.27-3.776-2.79-1.108-5.802-2.123-8.166-3.943-1.389-1.071-2.406-2.384-3.209-3.816 5.713-.946 11.17-5.445 12.695-10.301 2.162-6.895-.303-14.686-6.901-18.696-7.459-4.532-17.609-1.687-20.927 5.974-.427.989-.742 2-.951 3.025-.307.816-.52 1.644-.629 2.464-.458 3.463.753 7.456 3.012 10.779a24.992 24.992 0 003.974 5.352c.086 1.256.167 2.507.256 3.763.222 3.107.66 6.093 2.069 8.949 2.717 5.503 7.774 9.466 13.06 12.819 2.841 1.802 5.333 2.118 8.244.216 2.294-1.5 4.219-3.493 5.515-5.806 1.398-2.482 1.638-4.999-.772-7.003z" fill="#2C294C"/><path d="M578.439 181.255c-9.874.058-19.744.112-29.617.173-3.606.021-16.806 1.352-18.475 2.068-8.24 3.532-8.244 13.139-8.861 20.362-.9 10.524-.081 56.797.365 96.024 3.8 3.086 7.999 5.676 12.583 7.507 14.027 5.607 29.668 5.327 44.288 1.892 14.671-3.446 28.45-10.341 37.543-21.779A40.148 40.148 0 00624.816 266c.337-3.931.155-8.654-1.766-12.229a7.56 7.56 0 00-.466-.752c-1.188-4.582-4.064-8.722-8.333-11.308-1.848-1.119-3.943-1.838-6.117-2.148-2.371-1.651-5.104-2.953-7.867-3.884-2.76-5.313-6.179-10.435-9.284-15.463a114.158 114.158 0 01-5.756-10.571l-.163-.338a92.841 92.841 0 01-.714-1.622 104.354 104.354 0 01-3.21-8.5 102.968 102.968 0 01-3.132-11.866c-.12-.589-.221-1.179-.33-1.773.326-1.097.544-2.259.687-3.503.035-.263.058-.525.074-.788z" fill="#B38740"/><path d="M689.973 363.546c-10.669-4.431-19.876-10.862-29.761-16.57-11.228-6.482-24.083-11.327-37.554-10.557-14.074.802-27.611 6.158-37.334 15.758-8.5 8.391-13.665 18.797-17.655 29.569-3.757 10.147-6.397 20.628-10.728 30.588-3.023 6.323-6.668 12.38-11.092 17.955-3.152 3.615-6.637 6.949-10.511 9.895a62.468 62.468 0 01-10.498 5.647c-.237.09-.466.18-.695.274 2.503 2.881 6.516 3.366 10.452 3.485a4056.226 4056.226 0 0039.099.964c17.551.345 35.11.561 52.664.611 17.427.051 30.258.13 47.681-.176 8.775-.155 17.551-.36 26.322-.619 3.92-.115 8.624.342 12.358-.881 5.073-1.665 5.86-6.294 6.097-10.672.175-3.204-.151-41.525-.411-69.055-1.867-.108-3.73-.259-5.589-.457a111.604 111.604 0 01-22.845-5.759zm-91.255-150.211c-.015-.345-.015-.244 0 0zM718.62 351.763c-.073-7.427-.077-20.876-.042-36.673-4.506-.899-9.125-1.41-13.775-1.831-2.107-.191-4.215-.363-6.318-.568-.777-.076-1.549-.162-2.321-.245-.59-.09-1.184-.165-1.774-.255a69.38 69.38 0 01-5.694-1.112c-1.824-.442-3.982-.863-5.651-1.715.369.169 1.549.662.311.086-.354-.165-.714-.32-1.068-.489a30.396 30.396 0 01-2.569-1.378c-.33-.198-.648-.406-.974-.611-.792-.676-1.599-1.313-2.337-2.047-.271-.27-.528-.55-.791-.823-1.048-1.083.104.23.228.312-.663-.438-1.21-1.615-1.641-2.273a30.297 30.297 0 01-1.281-2.165c-.221-.41-.423-.831-.64-1.245a.314.314 0 01-.028-.05c-.011-.032-.027-.065-.042-.104-2.686-6.669-3.827-13.668-5.76-20.527-2.115-7.5-5.403-14.97-11.267-20.646-6.695-6.482-16.026-8.64-24.848-11.51a183.018 183.018 0 01-5.705-1.989 2.465 2.465 0 00-.345-.101c-.222-.1-.439-.212-.563-.266a77.136 77.136 0 01-3.175-1.396 63.337 63.337 0 01-5.255-2.74 54.78 54.78 0 01-2.104-1.299 28.737 28.737 0 00-.679-.417c-.373-.27-.73-.575-1.079-.856a38.512 38.512 0 01-4.005-3.665c-.268-.281-.52-.576-.788-.856l-.047-.051c-.609-.809-1.23-1.607-1.797-2.449a41.33 41.33 0 01-2.596-4.439c-.082-.165-.222-.392-.334-.618a3.25 3.25 0 00-.117-.342 47.871 47.871 0 01-1.11-2.935 49.248 49.248 0 01-1.571-5.791 52.636 52.636 0 01-.276-1.403 10.719 10.719 0 01-.082-.935c.004.159.016.407.024.777-.027-.942-.237-1.899-.319-2.841-.399-4.601-.213-9.23.346-13.812.05-.407.093-.82.159-1.227.058-.327.12-.68.136-.759.209-1.248.446-2.492.702-3.733a135.232 135.232 0 011.673-7.082c.311-1.184.633-2.363.967-3.54-9.832.054-19.663.112-29.49.169a107.63 107.63 0 00-1.455 6.982c-1.786 10.319-2.69 20.887-1.405 31.307 1.215 9.848 3.772 19.559 9.221 28.195 5.244 8.309 13.018 14.988 22.372 19.161 8.604 3.837 17.826 6.175 26.683 9.416.439.184.881.363 1.316.554.958.417 1.905.853 2.837 1.317a44.183 44.183 0 014.025 2.258c.139.09.31.22.477.353l-.365-.338c.163.151.326.295.489.442a3.578 3.578 0 00-.124-.101c.947.871.788.684.369.313 1.141.979 2.336 1.881 3.376 2.979.179.374.777.938.975 1.219a31.604 31.604 0 012.053 3.323c.233.432.446.867.667 1.302a.152.152 0 00.016.04c.404 1.043.827 2.075 1.195 3.129.777 2.223 1.433 4.478 2.061 6.741 1.242 4.449 2.391 8.941 4.157 13.243 2.228 5.421 5.065 10.125 8.997 14.629 3.563 4.082 7.944 7.477 12.606 10.441 10.731 6.827 23.683 10.287 36.382 12.294 2.884.457 5.818.903 8.776 1.288.011-.011.011-.015.011-.022z" fill="#27374D"/><path d="M717.999 188.938c-2.771-6.018-9.253-8.201-15.835-8.64-6.796-.449-13.743-.036-20.551 0-14.679.08-29.357.162-44.036.245-4.211.022-8.422.047-12.633.068-1.483 4.881-2.384 9.895-2.411 15.028-.066 11.744 4.627 24.422 14.792 31.918 5.398 3.982 11.488 6.967 18.284 8.341 6.99 1.41 13.685 1.371 20.71.342 11.814-1.727 23.702-7.942 31.298-16.524 6.055-6.845 10.297-14.938 12.039-23.559-.166-2.511-.617-4.964-1.657-7.219z" fill="#B38740"/><path d="M320.855 186.323c0-8.992-4.948-12.833-7.7-13.956-5.888-2.406-63.186-16.135-87.389-21.293-3.214-.683-6.494-1.471-9.808-2.309-4.285 5.64-7.731 11.88-10.468 18.409-6.229 14.855-7.611 31.152-7.405 46.953.233 17.915 2.177 35.799.155 53.686-1.944 17.193-5.794 34.684-.442 51.73 2.771 8.833 8.247 18.473 17.547 22.757 5.806 2.672 12.59 3.791 18.882 1.813 5.243-1.648 9.85-4.54 13.51-8.395 6.206-6.543 11.221-14.262 16.231-21.607a436.765 436.765 0 0013.713-21.448c17.558-29.296 31.74-60.354 43.337-92.075-.101-6.773-.163-11.887-.163-14.265z" fill="#627A94"/><path d="M184.016 256.08c-2.461-.27-5.729 1.129-6.121 3.705-.567 3.697-1.599 6.37-3.738 9.398-1.657 2.349-.508 5.741 2.011 7.104 2.748 1.489 5.981.475 7.665-1.863 2.899-4.021 4.413-8.499 5.022-13.265.319-2.514-2.371-4.806-4.839-5.079zm-24.452 72.296c-2.461-.269-5.729 1.13-6.121 3.705-.566 3.698-1.599 6.37-3.737 9.399-1.658 2.348-.509 5.74 2.01 7.103 2.748 1.489 5.981.475 7.666-1.863 2.899-4.021 4.413-8.499 5.022-13.265.318-2.514-2.372-4.805-4.84-5.079zm25.212-44.485c-2.821-.719-6.186.881-6.865 3.615-1.378 5.524-3.653 10.128-7.157 14.822-1.72 2.302-.458 5.755 2.006 7.093 2.814 1.525 5.888.421 7.654-1.859 3.978-5.14 6.78-11.136 8.267-17.305.652-2.726-.897-5.6-3.905-6.366zm19.018 50.715c-2.821-.719-6.186.881-6.866 3.615-1.377 5.525-3.652 10.129-7.157 14.823-1.719 2.302-.458 5.755 2.007 7.093 2.814 1.525 5.888.42 7.654-1.86 3.978-5.14 6.78-11.136 8.267-17.304.652-2.727-.897-5.601-3.905-6.367zm13.584 18.704c-2.821-.72-6.186.881-6.865 3.615-1.378 5.524-3.653 10.128-7.157 14.822-1.72 2.302-.458 5.755 2.006 7.093 2.814 1.525 5.888.421 7.654-1.86 3.978-5.139 6.78-11.135 8.267-17.304.652-2.726-.897-5.6-3.905-6.366zm-22.899 64.743c-2.821-.72-6.186.881-6.866 3.614-1.377 5.525-3.652 10.129-7.156 14.823-1.72 2.302-.458 5.755 2.006 7.093 2.814 1.525 5.888.421 7.654-1.86 3.978-5.14 6.78-11.135 8.267-17.304.652-2.726-.897-5.6-3.905-6.366zm-18.629 36.328c-2.822-.72-6.187.881-6.866 3.615-1.378 5.524-3.652 10.128-7.157 14.822-1.72 2.302-.458 5.755 2.006 7.093 2.814 1.525 5.888.421 7.654-1.86 3.978-5.139 6.781-11.135 8.267-17.304.652-2.726-.897-5.6-3.904-6.366zm42.305-68.7c-2.822-.719-6.187.881-6.866 3.615-1.378 5.525-3.652 10.129-7.157 14.823-1.72 2.302-.458 5.755 2.006 7.093 2.814 1.525 5.888.42 7.654-1.86 3.978-5.14 6.781-11.136 8.267-17.304.652-2.727-.896-5.601-3.904-6.367zm23.287-46.039c-2.822-.72-6.187.881-6.866 3.615-1.378 5.524-3.652 10.128-7.157 14.822-1.719 2.302-.458 5.755 2.007 7.093 2.814 1.525 5.887.421 7.653-1.859 3.979-5.14 6.781-11.136 8.267-17.305.652-2.726-.896-5.6-3.904-6.366zm-71.414 15.826c-2.822-.719-6.187.881-6.866 3.615-1.378 5.524-3.652 10.128-7.157 14.822-1.719 2.302-.458 5.755 2.007 7.093 2.813 1.525 5.887.421 7.653-1.859 3.979-5.14 6.781-11.136 8.267-17.305.652-2.726-.896-5.6-3.904-6.366zm5.329-33.839c-1.44 4.726-3.396 8.895-6.036 13.15-3.598 5.798 5.958 10.959 9.665 5.233 3.139-4.856 5.519-10.179 7.125-15.635 1.894-6.428-8.806-9.154-10.754-2.748zm78.012-16.546c-1.44 4.727-3.396 8.895-6.035 13.15-3.598 5.799 5.957 10.96 9.664 5.234 3.14-4.856 5.519-10.179 7.126-15.636 1.894-6.427-8.807-9.154-10.755-2.748zm-28.721 13.309c-1.44 4.726-3.396 8.895-6.035 13.15-3.598 5.798 5.957 10.959 9.664 5.233 3.14-4.856 5.519-10.179 7.126-15.635 1.894-6.428-8.807-9.154-10.755-2.748zm-16.627-18.758c-2.845-.723-6.144.885-6.858 3.608-1.052 3.996-2.589 7.168-5.1 10.65-1.681 2.327-.489 5.737 2.006 7.086 2.779 1.507 5.923.446 7.646-1.86a36.716 36.716 0 006.203-13.128c.671-2.716-.901-5.593-3.897-6.356zm-40.365 92.079c-2.845-.723-6.144.885-6.858 3.608-1.052 3.996-2.589 7.168-5.1 10.65-1.68 2.327-.489 5.737 2.007 7.086 2.779 1.507 5.923.446 7.646-1.86a36.714 36.714 0 006.202-13.128c.671-2.716-.9-5.593-3.897-6.356zm24.064-14.387c-2.845-.723-6.144.885-6.858 3.607-1.052 3.996-2.589 7.169-5.1 10.65-1.681 2.328-.489 5.737 2.006 7.086 2.779 1.507 5.923.446 7.646-1.859a36.72 36.72 0 006.203-13.129c.671-2.715-.901-5.593-3.897-6.355zm-25.616 47.838c-2.845-.723-6.144.884-6.858 3.607-1.052 3.996-2.589 7.169-5.1 10.65-1.681 2.328-.489 5.737 2.006 7.086 2.779 1.507 5.923.446 7.646-1.859a36.72 36.72 0 006.203-13.129c.671-2.715-.901-5.593-3.897-6.355z" fill="#27374D"/><path d="M98.505 167.746c-.415-32.239-1.424-64.488-3.435-96.68l.082-.982c-17.249.561-70.86.392-71.527.417-4.972.206-9.42 3.799-9.323 8.64 1.324 65.783 2.306 130.698 2.705 196.492.237 39.086.295 78.173.179 117.26 16.96-4.072 32.858-13.79 43.87-26.199 6.88-7.759 12.167-16.103 15.811-25.585 3.978-10.351 4.98-21.635 5.182-32.547.21-11.348-.47-22.736.92-34.037.993-5.766 2.666-11.337 4.99-16.758 3.086-6.42 6.855-12.503 10.787-18.502.004-30.447-.055-56.927-.241-71.519z" fill="#E3E0DA"/><path d="M320.91 192.456c-13.62-4.036-28.423-2.266-41.25 3.363-14.112 6.194-24.739 18.099-29.47 31.785-4.902 14.182-3.229 30.181 1.572 44.176 5.403 15.754 14.458 30.091 21.537 45.194 4.098 9.255 7.355 18.823 9.008 28.725.738 6.039.827 12.107.124 18.153-.815 4.726-2.123 9.348-3.993 13.808a58.93 58.93 0 01-6.42 10.107c-6.924 7.849-15.521 14.201-23.982 20.574-9.489 7.147-18.482 14.686-26.38 23.369-17.613 19.362-32.715 43.043-34.648 68.818-.039.507-.066 1.021-.093 1.532 2.441-.453 4.879-.91 7.316-1.363a3551.535 3551.535 0 0040.873-7.834 3504.586 3504.586 0 0060.912-12.618c5.375-1.161 11.185-2.269 15.73-5.352 3.26-2.212 5.655-4.949 6.994-8.521 1.211-3.226 1.257-6.769 1.323-10.15.074-3.985.148-7.974.226-11.959.295-2.475.438-4.96.508-7.403.279-9.733.198-19.484.279-29.22l.501-59.492.505-60.207c.139-17.402-.92-74.548-1.172-95.485zm396.829 59.038c-5.93-1.187-11.267-5.363-14.504-9.956-3.617-5.136-4.428-11.578-4.067-17.574.322-5.381 1.506-10.697 1.591-16.092.008-.374.015-4.208-.225-4.223-.039-.003.116.723.136.813.004.014.004.011 0 0-.008-.043-.047-.205-.125-.554-.073-.331-.132-.662-.209-.989a26.322 26.322 0 00-.458-1.705 26.542 26.542 0 00-.745-2.133c-.059-.147-.121-.324-.187-.496-.042-.072-.089-.144-.12-.202-.633-1.183-1.285-2.345-2.053-3.46a38.262 38.262 0 00-1.246-1.676c.357.471-.516-.59-.831-.924a34.972 34.972 0 00-4.009-3.63 2.168 2.168 0 01-.105-.082 205.874 205.874 0 00-6.916-1.655c-7.064-1.561-14.5-2.633-21.77-1.924-13.036 1.266-25.468 7.568-29.83 19.628-2.034 5.618-1.646 11.787 1.191 17.092 2.736 5.118 7.844 8.866 13.041 11.718 4.917 2.698 10.242 4.702 15.032 7.601 4.382 2.65 7.894 5.884 8.694 10.704.5 3.021.139 6.15.26 9.197.124 3.09.628 6.165 1.929 9.024 2.973 6.532 9.384 9.057 16.584 9.766 6.672.658 14.031 1.039 20.508-.856 3.474-1.015 6.575-2.716 9.37-4.806.038-7.708.077-15.293.12-22.426a23.716 23.716 0 01-1.056-.18z" fill="#F79E88"/><path d="M1087.39 343.656c-1.93-5.399-4.59-10.712-8.22-15.323-3.51-4.463-7.48-8.452-11.8-12.251-3.65-3.219-7.43-6.337-10.85-9.776-.77-.78-1.53-1.575-2.27-2.395-.07-.087-.15-.173-.22-.259-.27-.338-.54-.676-.79-1.018a37.68 37.68 0 01-1.8-2.676c-.33-.536-.64-1.083-.94-1.637-.13-.237-.24-.478-.37-.719-.65-1.23.24.705.4.896-.71-.853-.98-2.529-1.27-3.554-.26-.932-.47-1.874-.65-2.82-.31-3.075-.24-6.151.1-9.222 2.19-12.078 9.12-23.729 5.33-36.195a28.92 28.92 0 00-2.28-5.428l-22.43.076c-7.62.025-12.22-.137-19.83-.108-6.27.025-24.843-2.399-31.317 3.356-3.337 2.967-2.581 10.981-2.348 15.027.497 8.586-1.211 95.234-.718 103.819.241 4.147.384 8.312.73 12.452.314 3.784 1.122 7.849 4.133 10.658 3.497 3.259 8.229 3.417 12.874 3.73 4.596.309 9.196.582 13.796.82 3.04.158 34.75-.018 75.86-.306 8.29-14.297 10.53-31.407 4.88-47.147z" fill="#627A94"/><path d="M1123.13 364.539c-.94-10.046-2.92-20.034-6.41-29.595-3.29-9.028-8.16-17.315-12.29-25.983-1.16-2.716-2.11-5.485-2.72-8.348a28.833 28.833 0 010-4.457 36.112 36.112 0 011.83-5.974c2.32-4.568 5.33-8.78 8.61-12.805 6.87-8.125 14.17-16.423 16.03-26.926.56-3.183.8-6.287.81-9.402l-54.37.183-44.93.151c-3.84.015-6.91-.021-9.99-.057-.94 2.856-1.69 5.762-2.19 8.708-1.61 9.456-1.61 18.498.29 27.936 1.44 7.201 5.18 13.801 6.71 20.941.63 8.111-1.76 16.251-1.82 24.369-.06 9.395 1.44 18.89 3.74 28.026 2.11 8.399 5.04 16.603 8.25 24.693 1.98 4.985 3.88 10.146 6.16 15.106 21.22-.115 50.27-.323 81.02-.554 2.09-8.431 2.07-17.455 1.27-26.012z" fill="#627A94"/><path d="M1185.75 390.008c.97-1.823 1.87-3.672 2.74-5.532 10-21.617 17.75-44.244 22.91-67.275 2.66-11.859 4.79-23.937 5.83-36.011.95-10.949.53-22.607-3.46-33.048a57.237 57.237 0 00-3.46-7.431c-15.19.05-30.39.101-45.58.154-21.6.072-43.2.148-64.8.22-3.82 6.413-6.57 13.405-7.97 20.775-1.87 9.809-2.22 19.754-3.49 29.624-.79 4.762-1.94 9.445-3.78 13.948-2.76 5.507-6.4 10.557-10.35 15.395-6.19 7.29-12.81 14.297-18.42 21.994-2.59 3.561-4.9 7.287-6.74 11.233-1.36 2.917-2.69 5.834-3.62 8.899-1.08 3.6-1.6 7.301-2.11 11.006-.76 5.625-1.19 11.406-1.17 17.081 36.09-.208 93.33-.658 143.47-1.032z" fill="#B38740"/><path d="M1251.21 380.048c4.6-15.962 2.66-32.655.04-48.737-2.36-14.491-5.21-29.076-9.09-43.288-3.87-14.203-9.4-28.361-17.88-40.791a112.256 112.256 0 00-4.81-6.518l-54.58.184-67.54.226c-.04 2.374.06 4.737.33 7.061.65 5.543 1.67 10.934 3.92 16.121 2.62 6.017 5.81 11.107 10.33 16.085 6.41 7.068 15 12.154 22.92 17.671 3.22 2.378 6.29 4.91 8.96 7.809a32.015 32.015 0 012.69 4.201 33.946 33.946 0 011.49 5.212c.41 4.51.09 9.028-.5 13.517-2.15 13.768-5.54 27.728-1.46 41.496 2.11 7.119 6.02 13.906 10.56 19.963 33.55-.252 66.4-.5 90.88-.651a55.748 55.748 0 003.74-9.561z" fill="#F79E88"/><path d="M1304.87 256.684c-.72-6.028-4.45-10.952-10.47-13.401-5.2-2.119-10.91-2.658-16.55-2.676-7.52-.022-15.05.05-22.58.075-26.24.09-52.47.176-78.71.266l-.12 1.856c-.54 10.507.92 20.948 6.52 30.242 4.61 7.64 11.43 13.87 17.32 20.65 1.85 2.341 3.52 4.776 4.89 7.384.95 2.403 1.65 4.87 2.12 7.392.49 4.798.26 9.61-.33 14.394-1.14 7.075-2.89 14.046-4.46 21.049-2.06 9.218-3.57 18.552-4.67 27.911-.71 6.039-1.26 12.143-.94 18.222 48.26-.356 87.65-.612 91.11-.461 4.22.187 8.59.198 12.39-1.744 3.69-1.885 6.11-5.453 6.92-9.23.8-3.715.55-7.441.38-11.196-.19-4.13-2.45-107.585-2.82-110.733z" fill="#627A94"/><path d="M1163.77 398.569l-3.17-.468c-1.29-.191-2.18-1.32-1.97-2.521l2.5-14.564c.2-1.201 1.42-2.021 2.72-1.831l3.17.468c1.29.19 2.18 1.32 1.97 2.521l-2.5 14.564c-.2 1.205-1.42 2.025-2.72 1.831z" fill="#27374D"/><path d="M1188.72 642.61c.15-6.978 1.47-39.914 2.24-39.569 1.02.453 2.12 1.989 3.16 2.209.55-.371 1.47-.313 1.76.323.35.058.69.116 1.04.173.01 0 .02.004.02.004.45-.623 1.56-.468 2 .147.15.216.29.443.41.673.36.226.69.503.99.859.06.069.1.141.14.213.36.162.61.482.57.967-.25 2.655-2.65 17.161-3.44 19.671-1.04 4.536-2.15 9.108-3.6 13.517-.55 1.673-1.75 3.461-3.89 3.396-2.18-.061-1.44-.799-1.4-2.583z" fill="#F28168"/><path d="M1178.57 641.197c1.97-.698 3.8-1.36 5.81-1.972 1.43-.438 2.86-.938 4.39-.892 1.45.044 5.15.921 5.34.964 1.79.414 1.03 3.45.72 5.151-.56 3.065-3.6 1.968-6 1.676-3.63-.446-7.16-.568-10.75-1.201-.93-.166-2.55-.425-2.96-1.065-.23-.37-1.18-1.028 3.45-2.661z" fill="#27374D"/><path d="M1242.89 643.858c-.86-6.935-4.27-39.741-3.45-39.497 1.08.324 2.39 1.712 3.45 1.802.49-.435 1.42-.493 1.79.105l1.06.043h.02c.36-.673 1.48-.655 2-.097.19.197.35.402.5.615.4.179.77.413 1.11.73.06.061.12.126.17.194.37.115.67.403.7.888.13 2.662-.17 17.334-.59 19.92-.38 4.625-.83 9.29-1.63 13.84-.3 1.723-1.24 3.644-3.36 3.845-2.18.209-1.56-.615-1.77-2.388z" fill="#F28168"/><path d="M1232.62 643.707c1.86-.931 3.57-1.816 5.48-2.669 1.35-.611 2.7-1.28 4.23-1.424 1.43-.133 5.23.277 5.42.298 1.84.187 1.52 3.292 1.46 5.015-.12 3.107-3.29 2.395-5.71 2.399-3.66.003-7.17.316-10.82.133-.95-.047-2.59-.108-3.08-.691-.29-.338-1.33-.874 3.02-3.061zm26.53-92.068c-.76-9.704-1.61-19.398-2.51-29.091-.89-9.643-1.6-19.34-2.83-28.944-.63-4.974-6.21-10.085-8.04-14.783-1.69-4.356.45-9.737-4.79-10.441-2.21-.299-4.44.528-5.08 2.881-.23.816-.14 1.78.19 2.654a4.034 4.034 0 00-1.59-.108c-1.12.169-1.96.673-2.56 1.399-1.39-2.722-5.46-2.384-7.14.018-1.28-.762-3.02-.838-4.39-.158 0-.061 0-.119.01-.18.12-2.043-1.68-3.856-3.62-4.086-2.17-.259-3.8.993-4.57 2.982-.2.514-.38 1.032-.58 1.55-.19.036-.38.087-.56.166-.57.237-1.11.51-1.62.816a3.857 3.857 0 00-.75-.759c-1.48-1.104-4.98 2.011-5.45 3.989-2.33 9.712-6.61 11.089-8.62 16.225-3.94 10.107-5.07 20.693-6.71 32.602-2.85 20.585-7.29 54.208-9.25 74.897-.24 2.6-.48 5.197-.71 7.798-.22 2.51-.7 5.118-.26 7.621.99 5.522 6.86 6.806 11.51 8.014 4.69 1.223 9.98 2.417 14.85 2.284 6.06-.165 7.68-6.122 9.35-10.905 1.83-5.259 8.81-42.968 9.83-48.439.88 6 .86 44.05 1.74 50.05.47 3.205.93 6.485 3.94 8.366 2.7 1.691 6.57 1.511 9.65 1.651 7.78.356 13.27-.273 20.94-1.618 1.76-.31 3.08-2.317 3.06-4.015-.25-19.937-1.89-52.567-3.44-72.436z" fill="#27374D"/><path d="M1242.57 365.463c-2.35-3.715-11.34-4.931-15.85-4.708-7.68.381-10.96 6.198-13.5 12.406-.71.766-1.45 1.503-2.23 2.276-.97.975-2.51 1.871-2.25 3.385.16.928.96 1.514 1.81 1.939-.84 3.456-1.19 7.355.06 10.222 1.15 2.672 5.06 3.039 7.47 4.69.38.054-.79.266-.4.281 1.37.05 2.82-.198 4.19-.356 2.9-.335 5.68-.784 8.46-1.626 1.02-.306 2.29-.799 3.55-1.061 5.71-3.449 9.79-9.535 10.78-15.625.65-3.963.12-8.323-2.09-11.823z" fill="#F28168"/><path d="M1232.83 392.831l-14.67 1.429 2.6 22.893 14.66-1.429-2.59-22.893z" fill="#F28168"/><path d="M1254.51 480.26c-.63-10.776-.58-28.239-.2-39.026.34-9.539 1.68-20.383-2.33-26.976-2.69-4.435-3.68-7.021-9.18-7.672-6.06-.716-23.47-.428-29.24 1.018-4.68 1.172-8.42 4.061-11.64 7.463-5.25 5.532-4.65 9.453-5.67 16.593-.55 3.855-.84 7.743-1.47 11.592-.63 3.867-2.3 25.322-2.86 29.188-1.84 12.64-3.98 12.1 7.86 13.953 4.08.636 25.21 1.284 34.78.136 4.72-.572 20.23-1.37 19.95-6.269z" fill="#27374D"/><path d="M1211.84 414.01c-1.17-1.367-4.43-2.148-6.53-1.205-8.27 3.719-15.73 8.906-23.03 14.089-1.65 1.161-3.33 2.341-4.93 3.614-1.78-3.787-4.11-7.366-6.17-11.02a163.947 163.947 0 01-8.72-17.963c.93-2.888.48-5.985-1.42-8.553-.37-.507-1.07-.637-1.58-.389.03-.359.03-.737.06-1.068.09-.957.19-1.91.28-2.867.05-.464-.4-.935-.86-1.046-3.59-.867-4.82 4.949-5.14 7.19-.28 1.874-.24 3.798.19 5.65.17.767.43 1.5.92 2.148.37.478.94.859 1.39 1.309 2.8 13.15 6.98 27.768 13.41 39.763 2.03 3.798 6.58 2.144 9.68 1.004 4.27-1.576 8.23-3.774 12.16-5.982 3.9-2.194 7.72-4.5 11.46-6.91 3.39-2.183 7.01-4.402 9.33-7.646 2.21-3.101 2.22-6.957-.5-10.118z" fill="#F28168"/><path d="M1255.02 385.778c-.82-3.093-1.89-6.122-2.51-9.262-.61-3.064-1.1-6.006-2.58-8.844-3.01-5.752-9.22-9.665-15.99-10.489-3.27-.395-7.15-.316-9.93 1.518-1.21.795-2.03 1.885-2.57 3.108-1.76 2.162-2.13 5.665-2.93 8.204-2.03 6.46.62 11.726.1 13.039-.75 1.877-6.72 4.708-9.6 10.503-.67 1.352-1.4 2.647-1.46 4.154-.26 6.402 5.09 7.978 11.05 7.402 3.18-.305 6.29-1.359 9.49-1.381 3.04-.022 5.96.968 8.82 1.798 2.93.853 6.17 1.856 9.27 1.601 3.48-.284 6.03-2.158 7.72-4.92 3.08-5.025 2.55-11.032 1.12-16.431z" fill="#FFF2E8"/><path d="M1221 374.074a94.679 94.679 0 01-7.72-2.798c.39-.831.81-1.647 1.27-2.453.46-.82-.87-1.547-1.34-.727a35.223 35.223 0 00-3.04 7.011c-.28.892 1.22 1.273 1.49.381.31-.982.66-1.942 1.05-2.885a97.516 97.516 0 007.88 2.86c.95.295 1.36-1.094.41-1.389z" fill="#27374D"/><path d="M1195.16 424.488l-.09-.105c.49-.453.5-1.359.05-1.877-.62-.705-1.23-1.41-1.85-2.119.29-1.097-.97-2.151-1.74-2.899-1.02-.985-2.12-1.888-3.22-2.791-1.17-1.342-12.9-13.769-14.44-15.456.07-.201-.71-2.456-.8-2.697-.62-1.687-1.4-3.317-2.42-4.831-.42-.626-2.97-3.715-3.72-3.32-2.22 1.187-1.95 3.151-1.65 5.191.22 1.499.99 3.161 1.74 4.413.41.687 1.85 2.489 2.44 2.953 1.32 2.913 2.78 7.47 4.12 10.37 3.36 7.24 6.86 11.117 13.22 16.347.53.439 1.17.396 1.65.126.71.766 1.44 1.525 2.19 2.262 1.06 1.04 2.93-.298 2.14-1.525a2.141 2.141 0 01-.13-.19c.58-.256.96-.871.73-1.536a1.4 1.4 0 00.33-.248c.04.014.09.025.13.039 1.39.428 2.13-1.223 1.32-2.107z" fill="#F28168"/><path opacity=".58" d="M322.097 277.657c-.171-27.249-1.211-81.777-1.211-91.392 0-8.992-4.948-12.833-7.7-13.955-4.087-1.669-32.909-8.787-58.261-14.711-3.827 7.848-6.621 16.142-8.488 24.674-3.827 17.484-5.682 36.95 1.525 53.927 3.59 8.46 8.76 16.262 16.325 22.182 7.25 5.676 15.598 10.388 23.966 14.517 9.082 4.481 21.153 9.301 31.473 5.722a26.814 26.814 0 002.371-.964zm-51.038 144.755c-3.749-6.039-9.264-11.039-14.95-15.51-3.276-2.575-6.691-5.078-10.332-7.2-3.299-1.921-6.835-3.363-10.444-4.709-11.884-4.435-24.933-5.161-36.864-9.42a44.138 44.138 0 01-4.979-2.467c-.552-.324-1.083-.669-1.623-1.011a36.478 36.478 0 01-2.639-2.288c-.493-.478-.97-.967-1.432-1.471.07.097.143.202.221.317-.081-.119-.167-.234-.252-.349v-.004a8.24 8.24 0 01-.784-1.064 34.314 34.314 0 01-1.223-1.712c-1.222-1.863-2.278-3.809-3.241-5.798-4.482-10.446-6.741-21.556-11.674-31.876-5.023-10.502-13.86-19.494-25.476-23.739.516 35.796 1.028 71.588 1.544 107.384.377 26.084.749 52.172 1.126 78.256.035 2.367 1.836 4.82 4.417 5.377 7.118 1.529 14.197.81 21.304-.395 6.862-1.166 13.7-2.468 20.539-3.737a3594.974 3594.974 0 0040.873-7.834c12.4-2.453 24.781-4.978 37.151-7.564 2.507-7.327 4.207-14.873 5.146-22.635 1.623-13.431 1.029-28.57-6.408-40.551zm-111.06 72.473c0-.13-.004-.263-.004-.392.167.136.341.269.516.399-.171 0-.342 0-.512-.007zM187.8 378.336c-.645-.917-.842-1.161-.815-1.097.264.353.528.709.784 1.065.011.011.019.022.031.032z" fill="#fff"/><path d="M644.268 332.606c-1.673-3.456-4.102-6.863-7.18-9.373-4.475-3.647-9.556-5.493-15.447-6.032-10.421-.953-19.837 4.212-27.526 10.114-3.124 2.396-5.977 5.424-9.373 7.485.14-.086 2.29-1.543.734-.536-.451.292-.889.594-1.343.882-.808.507-1.63.992-2.473 1.449a50.285 50.285 0 01-4.242 2.043c-3.963 1.417-8.061 2.399-12.249 3.025-6.295.615-12.61.439-18.894-.237-8.123-1.133-16.052-3.025-23.989-4.939a665.853 665.853 0 01-.113 11.442c-.322 15.398-.613 30.796-.652 46.197 13.503 2.479 27.506 2.687 41.168.651 7.235-1.079 14.166-3.402 21.374-4.55a34.855 34.855 0 014.89-.086c.978.187 1.941.425 2.888.72.314.147.625.302.927.471.144.079.284.165.42.251.194.191.461.468.698.709.012.014.02.032.027.043.024.036.039.072.062.108.179.543.323 1.094.447 1.647.205 2.799.039 5.622-.295 8.41-1.099 6.363-3.171 12.51-5.775 18.477-3.202 6.816-6.963 13.387-10.763 19.93-1.855 3.194-3.714 6.388-5.515 9.607.691.014 1.382.032 2.072.043 17.551.345 35.11.561 52.664.612 1.572.003 3.109.01 4.615.014a81.41 81.41 0 005.64-7.453c8.348-12.437 12.462-26.541 14.344-40.957 1.964-15.035.963-30.389-.718-45.41-.966-8.657-2.561-16.786-6.423-24.757z" fill="#F79E88"/><path d="M570.719 147.499c-.031-.072-.062-.14-.089-.212-.008-.018-.02-.043-.027-.065-.016-.032-.031-.068-.047-.101-.24-.514-.629-1.208.163.378zm366.65 77.788c.073-.021.151-.061.228-.104a.996.996 0 00-.17.05c-.054.04-.078.061-.058.054zm-1.266.13s.097.022.233.058c-.128-.054-.217-.079-.233-.058zm2.465-1.162c.101-.115.194-.223.276-.305.042-.044.085-.09.124-.137.058-.09.12-.18.182-.266-.784.68-.792.859-.582.708z" fill="#fff"/><path opacity=".14" d="M738.321 49.82c-12.885.097-25.775.154-38.664.19-.342-.518-.831-.942-1.433-1.118-2.142-.63-4.467-1.313-6.726-1.435-2.266-.123-3.64 1-4.576 2.582-14.383.018-28.771.004-43.155-.054a8101.73 8101.73 0 01-28.069-.162c-.054-.108-.104-.215-.163-.323-.562-1.072-2.161-1.917-3.465-1.554-1.778.496-3.676 1.029-5.376 1.805a8511.777 8511.777 0 01-57.477-.661c-3.031-.047-6.062-.098-9.093-.148-.645-.975-2.127-1.698-3.35-1.356-1.304.363-2.678.748-3.99 1.234-12.272-.216-24.54-.45-36.809-.673-3.346-.06-3.346 7.41 0 7.492 10.848.267 21.696.49 32.544.684.605 2.349 1.203 4.7 1.809 7.05-.629.219-1.017.363-1.048.399-1.262.737-2.283 1.766-2.814 3.197-.687 1.856-.253 3.845.019 5.737a123.42 123.42 0 001.005 5.964c.621 3.194.874 7.96 4.056 9.988 1.677 1.069 3.687.979 5.554.464 2.255-.618 4.491-1.338 6.715-2.05a277.317 277.317 0 005.546-1.841c2.255-.777 4.65-1.367 5.632-3.637.648-1.496.442-3.072-.031-4.593-.645-2.065-1.371-4.111-2.054-6.165-.597-1.798-1.199-3.597-1.797-5.395-.617-1.849-1.242-3.759-3.128-4.842-1.323-.758-2.891-.841-4.417-.776-.283-1.087-.535-2.177-.799-3.266 15.917.248 31.833.435 47.75.597 4.483.046 8.966.079 13.449.118.551 2.151 1.102 4.302 1.657 6.453-.629.22-1.017.363-1.048.4-1.261.737-2.282 1.765-2.814 3.197-.687 1.856-.252 3.845.019 5.737.288 1.996.621 3.985 1.006 5.963.621 3.194.873 7.96 4.056 9.989 1.676 1.068 3.687.978 5.554.464 2.254-.619 4.49-1.338 6.714-2.05a275.204 275.204 0 005.546-1.842c2.255-.777 4.65-1.367 5.632-3.636.648-1.497.442-3.072-.031-4.594-.644-2.064-1.37-4.11-2.053-6.164-.598-1.799-1.2-3.597-1.797-5.396-.617-1.849-1.242-3.758-3.129-4.841-1.323-.759-2.891-.842-4.416-.777-.245-.928-.462-1.863-.687-2.795 21.839.151 43.675.22 65.514.202-.132.32-.264.64-.396.964-.652-.148-1.063-.23-1.106-.22-1.49-.05-2.961.263-4.269 1.17-1.7 1.172-2.546 3.046-3.474 4.747a128.809 128.809 0 00-2.798 5.453c-1.432 2.96-4.122 7.028-2.729 10.37.734 1.758 2.449 2.733 4.305 3.287 2.239.669 4.521 1.24 6.792 1.816 1.894.479 3.796.94 5.701 1.378 2.333.536 4.673 1.302 6.866-.061 1.444-.9 2.236-2.306 2.771-3.81.726-2.042 1.37-4.11 2.057-6.164.598-1.799 1.2-3.597 1.797-5.395.617-1.85 1.262-3.752.361-5.633-.628-1.316-1.874-2.205-3.175-2.95.68-1.668 1.437-3.309 2.104-4.981 13.274-.032 26.551-.097 39.825-.194 3.373-.004 3.381-7.564 0-7.54zm536.459-21.207c-12.88.097-25.77.154-38.66.19-.34-.518-.83-.942-1.43-1.118-2.14-.63-4.47-1.313-6.73-1.435-2.26-.123-3.64 1-4.57 2.582a8168.8 8168.8 0 01-43.16-.054c-9.36-.036-18.71-.093-28.07-.162-.05-.107-.1-.215-.16-.323-.56-1.072-2.16-1.918-3.47-1.554-1.77.496-3.67 1.028-5.37 1.805-19.16-.158-38.32-.374-57.48-.661-3.03-.047-6.06-.098-9.09-.148-.65-.975-2.13-1.698-3.35-1.356-1.31.363-2.68.748-3.99 1.234-12.27-.216-24.54-.45-36.81-.673-3.35-.06-3.35 7.41 0 7.492 10.85.267 21.69.49 32.54.684.61 2.349 1.21 4.7 1.81 7.05-.63.219-1.02.363-1.05.399-1.26.737-2.28 1.766-2.81 3.198-.69 1.855-.25 3.845.02 5.736a132.9 132.9 0 001 5.964c.63 3.194.88 7.96 4.06 9.988 1.68 1.069 3.69.979 5.55.464 2.26-.618 4.49-1.338 6.72-2.05 1.85-.593 3.7-1.208 5.54-1.841 2.26-.777 4.65-1.367 5.64-3.637.64-1.496.44-3.072-.03-4.593-.65-2.065-1.37-4.111-2.06-6.165-.6-1.798-1.2-3.597-1.79-5.395-.62-1.849-1.25-3.759-3.13-4.842-1.33-.759-2.89-.841-4.42-.776-.28-1.087-.54-2.176-.8-3.266 15.92.248 31.83.435 47.75.597 4.48.046 8.97.079 13.45.118.55 2.151 1.1 4.302 1.66 6.453-.63.22-1.02.363-1.05.4-1.26.737-2.28 1.765-2.82 3.197-.68 1.856-.25 3.845.02 5.737.29 1.996.63 3.985 1.01 5.964.62 3.193.87 7.96 4.06 9.988 1.67 1.068 3.68.978 5.55.464 2.25-.619 4.49-1.338 6.71-2.05 1.86-.594 3.71-1.209 5.55-1.842 2.25-.777 4.65-1.367 5.63-3.636.65-1.497.44-3.072-.03-4.593-.64-2.065-1.37-4.112-2.05-6.166l-1.8-5.395c-.62-1.849-1.24-3.758-3.13-4.841-1.32-.759-2.89-.842-4.41-.777-.25-.928-.47-1.863-.69-2.795 21.84.151 43.67.22 65.51.202-.13.32-.26.64-.39.964-.65-.148-1.07-.23-1.11-.22-1.49-.05-2.96.263-4.27 1.17-1.7 1.172-2.54 3.046-3.47 4.747-.98 1.798-1.91 3.615-2.8 5.453-1.43 2.96-4.12 7.028-2.73 10.37.73 1.758 2.45 2.733 4.31 3.287 2.23.669 4.52 1.24 6.79 1.816 1.89.479 3.79.94 5.7 1.378 2.33.536 4.67 1.302 6.86-.061 1.45-.9 2.24-2.306 2.78-3.81.72-2.042 1.37-4.11 2.05-6.164l1.8-5.395c.62-1.85 1.26-3.752.36-5.633-.63-1.316-1.87-2.205-3.17-2.95.68-1.668 1.43-3.308 2.1-4.981 13.27-.032 26.55-.097 39.82-.194 3.37 0 3.38-7.564 0-7.54z" fill="#D9D6D0"/></svg>