<svg width="249" height="43" fill="none" xmlns="http://www.w3.org/2000/svg"><path opacity=".14" d="M245.785 2.613c-12.886.097-25.775.154-38.665.19-.341-.518-.83-.942-1.432-1.118-2.142-.63-4.467-1.313-6.726-1.435-2.267-.123-3.641 1-4.576 2.582-14.384.018-28.771.004-43.155-.054a7953.11 7953.11 0 01-28.069-.162c-.054-.108-.105-.215-.163-.323-.563-1.072-2.162-1.917-3.466-1.554-1.777.496-3.675 1.029-5.375 1.805C95 2.386 75.838 2.17 56.681 1.883c-3.031-.047-6.062-.098-9.094-.148C46.943.76 45.46.037 44.237.38c-1.303.363-2.677.748-3.989 1.234-12.272-.216-24.54-.45-36.81-.673-3.345-.06-3.345 7.41 0 7.492 10.849.267 21.697.49 32.545.684.605 2.349 1.203 4.7 1.808 7.05-.628.219-1.017.363-1.048.399-1.261.737-2.286 1.766-2.814 3.197-.687 1.856-.252 3.846.02 5.737a122.2 122.2 0 001.005 5.964c.621 3.194.873 7.96 4.056 9.988 1.677 1.069 3.687.979 5.554.464 2.255-.618 4.49-1.338 6.714-2.05a268.475 268.475 0 005.547-1.841c2.255-.777 4.65-1.367 5.631-3.637.648-1.496.443-3.072-.03-4.593-.645-2.065-1.37-4.111-2.054-6.165-.598-1.798-1.2-3.597-1.797-5.395-.617-1.849-1.242-3.759-3.128-4.842-1.324-.758-2.892-.841-4.417-.776-.283-1.087-.536-2.176-.8-3.266 15.917.248 31.834.435 47.75.597 4.484.046 8.966.079 13.449.118.551 2.151 1.103 4.302 1.658 6.453-.629.22-1.017.363-1.048.4-1.262.737-2.283 1.765-2.814 3.197-.687 1.856-.253 3.845.019 5.737.287 1.996.621 3.985 1.005 5.963.621 3.194.874 7.96 4.056 9.989 1.677 1.068 3.687.978 5.554.464 2.255-.619 4.491-1.338 6.715-2.05a269.66 269.66 0 005.546-1.842c2.255-.777 4.65-1.367 5.632-3.636.648-1.497.442-3.072-.031-4.594-.645-2.064-1.371-4.11-2.054-6.165-.597-1.798-1.199-3.596-1.797-5.395-.617-1.848-1.242-3.758-3.128-4.841-1.323-.759-2.891-.842-4.417-.777-.244-.928-.462-1.863-.687-2.795 21.84.151 43.675.22 65.515.202-.132.32-.264.64-.396.964-.652-.148-1.063-.23-1.106-.22-1.49-.05-2.961.263-4.269 1.17-1.7 1.172-2.546 3.046-3.474 4.747a127.581 127.581 0 00-2.798 5.453c-1.433 2.96-4.122 7.028-2.729 10.37.734 1.758 2.449 2.733 4.304 3.287 2.24.669 4.522 1.24 6.793 1.816 1.894.479 3.795.94 5.701 1.378 2.333.536 4.673 1.302 6.866-.061 1.444-.9 2.235-2.306 2.771-3.81.726-2.042 1.37-4.11 2.057-6.164.598-1.799 1.199-3.597 1.797-5.395.617-1.85 1.261-3.752.361-5.633-.629-1.317-1.875-2.205-3.175-2.95.679-1.668 1.436-3.309 2.104-4.981 13.273-.032 26.551-.097 39.825-.194 3.369 0 3.376-7.564 0-7.54z" fill="#D9D6D0"/></svg>